<svg xmlns="http://www.w3.org/2000/svg" width="1250" height="840" viewBox="0 0 1250 840">
  <path d="M 4.9628067,51.943165 4.6368247,783.36624 c 0,19.18106 23.7146793,50.42691 55.4373353,50.42691 H 1195.3067 c 22.6181,0 49.5866,-28.01558 49.5866,-50.79207 l 0.4699,-724.287264 c 0,-27.201413 -27.1156,-52.506969 -52.8255,-52.506969 L 55.460194,6.676638 c -28.661988,0 -50.4973873,30.319968 -50.4973873,45.266527 z" fill="#fff" stroke="#000" stroke-width="2.12589" fill-rule="evenodd"/>
  <path d="M 29.179051,60.080509 28.872378,775.82864 c 0,18.04523 12.901937,33.32816 37.74786,33.32816 H 1192.2551 c 15.9865,0 28.1274,-14.00803 28.1274,-35.43578 l 0.442,-707.858819 c 0,-25.590657 -13.7493,-35.285041 -37.9368,-35.285041 L 58.457319,31.01913 c -19.318775,0 -29.278268,14.999901 -29.278268,29.061379 z" fill="#003399"/>
  <path d="m 298.72037,244.97629 a 43.943105,43.943105 0 1 1 -87.88621,0 43.943105,43.943105 0 1 1 87.88621,0 z" fill="#fff"/>
  <path d="m 433.89547,229.1218 c -0.65347,-48.1697 -3.26733,-6.72135 25.76519,-78.13574 21.00423,-48.54311 -0.28006,-35.47381 108.38183,-37.2475 96.71281,1.9604 77.20221,-12.04242 99.42002,39.48796 27.81894,65.99996 25.67184,31.45966 25.48514,74.495 -1.02688,47.23618 16.42998,35.1004 -129.94618,36.68739 -145.25592,-1.96039 -128.07913,10.36209 -129.106,-35.28711 z m 29.40592,-46.48936 19.88401,-45.92925 c 3.70988,-8.15852 2.52627,-6.95416 11.20225,-7.00141 l 139.01862,-0.015 c 7.5258,0.0277 6.42171,-0.46099 9.52192,6.72136 l 19.77336,45.66417 z m -14.22064,87.04568 37.18527,-0.083 c -0.1141,46.68644 3.75483,44.08296 -16.52333,44.38376 -24.14709,-0.0934 -20.33002,2.34417 -20.66194,-44.30078 z m 191.49635,0.33192 h 37.2475 c -0.24894,46.75905 3.15323,43.56433 -17.92361,43.6888 -21.79254,-0.29043 -19.02309,3.15323 -19.32389,-43.6888 z" fill="#fff" fill-rule="evenodd"/>
  <circle cx="467.57224" cy="216.99567" r="18.158157" fill="#003399"/>
  <circle cx="658.71075" cy="216.99567" r="18.158157" fill="#003399"/>
  <path d="m 787.24555,312.33107 c 0.83156,17.03511 1.7909,32.87723 4.98821,47.43777 27.91241,127.11325 85.88203,160.19947 249.96324,275.98289 41.4049,29.21718 67.5571,56.33637 79.7711,54.36191" fill="none" stroke="#fff" stroke-width="28"/>
  <path d="m 895.53178,436.18679 c 0,0 -0.18827,-234.6301 -0.18827,-234.6301 l -60.06215,-0.18827 107.67505,-70.69638 -0.18828,-36.662401 34.84736,-0.188274 v 14.204015 l 32.60291,-22.842361 175.8107,116.373671 h -60.9358 l -0.1883,234.36668 z" fill="#fff"/>
  <path d="m 1010.4044,106.71839 -93.93551,75.93293 -0.53253,232.39681 68.16271,0.53252 V 315.46667 h 52.18703 v 100.33157 l 68.1685,0.64132 0.3206,-232.29375 z" fill="#003399"/>
  <path d="m 942.7342,200.08063 v 67.92775 h 54.19119 v -67.63812 z" fill="#fff"/>
  <path d="m 1022.9936,200.2513 v 67.92775 h 54.1912 v -67.63812 z" fill="#fff"/>
  <path d="m 531.44094,726.98569 a 32.793911,32.793911 0 1 1 -65.58782,0 32.793911,32.793911 0 1 1 65.58782,0 z" fill="#fff"/>
  <g transform="matrix(1.44103,0,0,1.44103,-581.763,-346.204)" fill="#fff">
    <path d="m 884.3916,771.02487 -5.1722,-117.8097 -32.7568,26.4354 c -7.1616,-0.5677 -14.7311,-0.5743 -18.6133,-5.6511 l 51.1786,-49.9972 c 11.6192,3.2529 22.6062,2.2916 32.9484,-2.9692 l 36.7796,7.4708 17.8151,36.7796 c -5.5141,1.0457 -8.4457,6.193 -20.6885,-3.4481 l -9.1949,-18.3898 -14.9417,-0.5746 13.2176,52.8706 34.4809,4.0228 c 9.1748,1.1208 9.7458,9.3272 12.0683,16.0911 l -55.7441,0.5747 -9.7696,-13.7924 -16.091,4.5975 0.5746,52.8707 c -4.8142,7.4857 -10.4442,9.2613 -16.091,10.9189 z" fill="#fff"/>
    <path d="m 916.2679,592.77679 c 0,13.03478 -10.5668,23.60158 -23.6016,23.60158 -13.0348,0 -23.6016,-10.5668 -23.6016,-23.60158 0,-13.03481 10.5668,-23.6016 23.6016,-23.6016 13.0348,0 23.6016,10.56679 23.6016,23.6016 z" fill="#fff"/>
  </g>
  <path d="m 124.81368,503.31128 c -18.65762,-1.30126 -19.10308,-27.95826 -19.5059,-43.13071 l 87.50536,-141.39803 c 17.38695,-24.90812 79.63946,-15.34823 79.61317,21.14725 v 58.46592 l 84.58899,52.24614 c -13.18884,11.63611 -24.98203,26.06351 -47.68843,18.66451 l -37.72641,-23.23259 -0.41293,48.93756 -89.56999,0.41293 v -78.36921 z" fill="#fff"/>
  <path d="m 118.1758,737.99563 108.21897,-174.98483 -0.8155,163.78923 c 10.1107,27.17723 29.17557,30.79536 46.03154,34.43337 l -0.41292,-257.10145 h -89.58035 v 42.29449 l -80.85195,128.96883 c -17.635259,49.13873 11.80593,55.65946 17.41021,62.60036 z" fill="#fff"/>
</svg>
