<svg xmlns="http://www.w3.org/2000/svg" width="403" height="300" viewBox="111 27 957 712">
  <path fill="#000" stroke="#000" stroke-width="1" d="M 616.78,321.01 C 616.78,326.03 612.60,359.10 612.18,365.79 611.76,372.49 610.51,403.88 610.09,411.41 609.67,418.95 608.83,438.62 608.83,445.73 608.83,452.85 607.58,505.58 607.58,511.44 607.58,517.30 607.16,529.44 605.90,533.21 604.65,536.97 604.65,541.99 602.56,544.51 600.46,547.02 596.28,549.11 596.28,549.11 596.28,549.11 590.00,549.53 590.00,549.53 590.00,549.53 584.10,549.11 584.10,549.11 584.10,549.11 580.17,547.02 578.21,544.51 576.24,541.99 576.24,536.97 575.06,533.21 573.88,529.44 573.49,517.30 573.49,511.44 573.49,505.58 572.31,452.85 572.31,445.73 572.31,438.62 571.52,418.95 571.13,411.41 570.74,403.88 569.56,372.49 569.16,365.79 568.77,359.10 564.84,326.03 564.84,321.01 564.84,315.99 564.45,315.57 566.80,308.87 569.16,302.18 590.00,302.18 590.00,302.18 590.00,302.18 612.18,302.18 614.69,308.87 617.20,315.57 616.78,315.99 616.78,321.01 Z M 616.78,321.01 C 616.78,326.03 612.60,359.10 612.18,365.79 611.76,372.49 610.51,403.88 610.09,411.41 609.67,418.95 608.83,438.62 608.83,445.73 608.83,452.85 607.58,505.58 607.58,511.44 607.58,517.30 607.16,529.44 605.90,533.21 604.65,536.97 604.65,541.99 602.56,544.51 600.46,547.02 596.28,549.11 596.28,549.11 596.28,549.11 590.00,549.53 590.00,549.53 590.00,549.53 584.10,549.11 584.10,549.11 584.10,549.11 580.17,547.02 578.21,544.51 576.24,541.99 576.24,536.97 575.06,533.21 573.88,529.44 573.49,517.30 573.49,511.44 573.49,505.58 572.31,452.85 572.31,445.73 572.31,438.62 571.52,418.95 571.13,411.41 570.74,403.88 569.56,372.49 569.16,365.79 568.77,359.10 564.84,326.03 564.84,321.01 564.84,315.99 564.45,315.57 566.80,308.87 569.16,302.18 590.00,302.18 590.00,302.18 590.00,302.18 612.18,302.18 614.69,308.87 617.20,315.57 616.78,315.99 616.78,321.01 Z M 703.09,243.19 C 703.09,243.19 773.91,195.84 782.81,189.77 791.71,183.70 826.92,159.43 834.61,154.57 842.30,149.72 867.39,135.15 875.07,130.29 882.76,125.44 900.57,116.41 908.26,112.64 916.06,108.82 929.30,103.99 936.18,101.97 943.06,99.95 953.58,97.11 961.27,96.71 968.96,96.30 975.25,97.09 981.50,99.95 986.28,102.13 991.52,106.92 993.14,111.37 994.75,115.83 995.69,122.37 995.69,128.44 995.69,134.51 994.58,141.07 992.83,148.10 991.20,154.68 989.81,160.41 987.17,167.92 984.21,176.32 982.36,181.39 979.38,188.97 976.29,196.81 972.84,202.85 969.67,208.79 965.75,216.13 963.33,220.98 960.21,225.94 955.67,233.14 952.36,236.31 952.36,236.31 952.36,236.31 957.09,243.61 958.21,260.70 958.67,267.71 959.40,294.26 958.59,303.57 957.78,312.88 955.98,325.72 954.41,332.99 952.70,340.98 949.48,350.47 946.22,357.62 942.89,364.93 939.04,370.16 936.11,375.14 932.74,380.86 929.08,384.33 926.57,387.53 924.66,389.99 919.84,393.61 919.84,393.61 919.84,393.61 925.66,384.00 925.66,384.00 925.66,384.00 932.03,372.71 934.84,366.22 937.57,359.90 939.97,350.31 939.97,343.83 939.97,337.36 937.62,329.27 934.64,325.79 931.57,322.20 924.85,315.62 919.18,310.76 913.52,305.91 904.91,300.21 897.88,295.46 891.73,291.30 886.40,288.10 881.55,284.46 876.69,280.82 870.93,276.77 866.17,271.92 861.92,267.58 858.81,264.94 858.05,257.65 857.53,252.64 859.29,247.48 861.29,240.79 863.34,233.91 864.80,227.84 865.36,222.15 865.84,217.31 866.99,215.49 865.64,210.23 864.33,205.10 863.44,203.51 855.90,200.21 848.34,196.91 844.54,197.71 838.78,197.97 831.86,198.27 828.37,199.03 820.27,200.65 812.18,202.26 803.52,204.04 795.43,207.27 787.33,210.51 779.98,212.84 771.48,215.67 765.25,217.75 751.25,223.76 751.25,223.76 751.25,223.76 736.27,230.24 727.37,233.47 721.76,235.52 703.09,243.19 703.09,243.19 Z M 632.95,306.51 C 632.95,306.51 618.15,554.28 618.15,554.28 618.15,554.28 643.32,566.62 647.76,569.58 652.20,572.54 670.11,581.76 682.81,590.81 693.92,598.73 715.38,619.93 715.38,619.93 715.38,619.93 695.64,595.25 689.22,586.37 682.81,577.48 667.50,557.24 663.06,545.89 658.62,534.54 656.15,525.16 658.62,518.25 661.07,511.39 664.20,511.06 668.99,509.86 672.93,508.87 680.34,509.37 686.26,512.33 692.18,515.29 706.99,530.10 712.42,535.03 717.85,539.97 794.85,617.46 794.85,617.46 794.85,617.46 716.37,529.60 716.37,529.60 716.37,529.60 703.54,511.84 699.09,504.43 694.65,497.03 690.21,486.17 689.72,481.73 689.22,477.29 689.72,469.88 693.17,466.92 696.63,463.96 700.08,462.97 706.99,463.96 710.93,464.52 721.30,471.36 727.23,475.80 733.15,480.25 753.39,499.99 753.39,499.99 753.39,499.99 841.24,581.43 841.24,581.43 841.24,581.43 757.83,493.57 757.83,493.57 757.83,493.57 738.58,473.34 735.62,467.41 732.66,461.49 730.19,452.61 734.63,446.68 739.07,440.76 744.50,442.24 749.93,444.22 755.36,446.19 764.74,451.62 771.16,456.06 777.57,460.50 848.65,509.37 848.65,509.37 848.65,509.37 773.62,450.63 773.62,450.63 773.62,450.63 759.31,440.27 757.34,435.33 755.36,430.40 752.40,427.93 755.36,422.01 757.71,417.31 761.78,416.08 767.70,416.08 773.62,416.08 782.51,417.56 788.92,418.06 795.34,418.55 882.70,429.90 882.70,429.90 882.70,429.90 804.72,414.60 796.33,412.63 787.94,410.65 750.43,402.76 744.01,399.30 737.59,395.85 715.38,388.94 707.48,384.99 699.59,381.04 685.27,373.14 678.36,368.21 671.45,363.27 672.44,364.26 664.05,356.36 655.66,348.46 649.24,342.54 645.29,336.62 641.34,330.69 639.37,328.23 636.41,320.82 633.45,313.42 632.95,306.51 632.95,306.51 Z M 480.39,243.19 C 480.39,243.19 408.52,195.84 399.48,189.77 390.45,183.70 354.72,159.43 346.91,154.57 339.11,149.72 313.65,135.15 305.84,130.29 298.04,125.44 279.97,116.41 272.16,112.64 264.25,108.82 250.81,103.99 243.83,101.97 236.84,99.95 226.17,97.11 218.36,96.71 210.56,96.30 204.17,97.09 197.83,99.95 192.97,102.13 187.66,106.92 186.02,111.37 184.37,115.83 183.43,122.37 183.43,128.44 183.43,134.51 184.56,141.07 186.33,148.10 187.99,154.68 189.39,160.41 192.08,167.92 195.08,176.32 196.96,181.39 199.98,188.97 203.11,196.81 206.62,202.85 209.84,208.79 213.82,216.13 216.27,220.98 219.44,225.94 224.05,233.14 227.40,236.31 227.40,236.31 227.40,236.31 222.61,243.61 221.47,260.70 221.00,267.71 220.26,294.26 221.08,303.57 221.90,312.88 223.73,325.72 225.32,332.99 227.06,340.98 230.32,350.47 233.63,357.62 237.02,364.93 240.92,370.16 243.90,375.14 247.32,380.86 251.03,384.33 253.57,387.53 255.52,389.99 260.41,393.61 260.41,393.61 260.41,393.61 254.50,384.00 254.50,384.00 254.50,384.00 248.03,372.71 245.19,366.22 242.41,359.90 239.97,350.31 239.97,343.83 239.97,337.36 242.36,329.27 245.39,325.79 248.50,322.20 255.33,315.62 261.08,310.76 266.83,305.91 275.56,300.21 282.70,295.46 288.94,291.30 294.34,288.10 299.27,284.46 304.20,280.82 310.05,276.77 314.88,271.92 319.19,267.58 322.35,264.94 323.12,257.65 323.65,252.64 321.86,247.48 319.83,240.79 317.75,233.91 316.26,227.84 315.70,222.15 315.22,217.31 314.05,215.49 315.42,210.23 316.75,205.10 317.65,203.51 325.30,200.21 332.98,196.91 336.83,197.71 342.68,197.97 349.70,198.27 353.25,199.03 361.46,200.65 369.68,202.26 378.46,204.04 386.68,207.27 394.89,210.51 402.36,212.84 410.98,215.67 417.30,217.75 431.52,223.76 431.52,223.76 431.52,223.76 446.71,230.24 455.75,233.47 461.45,235.52 480.39,243.19 480.39,243.19 Z M 551.57,306.51 C 551.57,306.51 566.60,554.28 566.60,554.28 566.60,554.28 541.05,566.62 536.55,569.58 532.04,572.54 513.87,581.76 500.98,590.81 489.70,598.73 467.92,619.93 467.92,619.93 467.92,619.93 487.96,595.25 494.47,586.37 500.98,577.48 516.51,557.24 521.02,545.89 525.53,534.54 528.03,525.16 525.53,518.25 523.04,511.39 519.87,511.06 515.01,509.86 511.00,508.87 503.48,509.37 497.47,512.33 491.46,515.29 476.43,530.10 470.92,535.03 465.41,539.97 387.27,617.46 387.27,617.46 387.27,617.46 466.92,529.60 466.92,529.60 466.92,529.60 479.94,511.84 484.45,504.43 488.96,497.03 493.47,486.17 493.97,481.73 494.47,477.29 493.97,469.88 490.46,466.92 486.95,463.96 483.45,462.97 476.43,463.96 472.44,464.52 461.91,471.36 455.89,475.80 449.88,480.25 429.34,499.99 429.34,499.99 429.34,499.99 340.18,581.43 340.18,581.43 340.18,581.43 424.84,493.57 424.84,493.57 424.84,493.57 444.37,473.34 447.38,467.41 450.38,461.49 452.89,452.61 448.38,446.68 443.87,440.76 438.36,442.24 432.85,444.22 427.34,446.19 417.82,451.62 411.31,456.06 404.80,460.50 332.66,509.37 332.66,509.37 332.66,509.37 408.81,450.63 408.81,450.63 408.81,450.63 423.33,440.27 425.34,435.33 427.34,430.40 430.35,427.93 427.34,422.01 424.96,417.31 420.83,416.08 414.82,416.08 408.81,416.08 399.79,417.56 393.28,418.06 386.76,418.55 298.10,429.90 298.10,429.90 298.10,429.90 377.25,414.60 385.76,412.63 394.28,410.65 432.35,402.76 438.86,399.30 445.37,395.85 467.92,388.94 475.93,384.99 483.95,381.04 498.47,373.14 505.49,368.21 512.50,363.27 511.50,364.26 520.02,356.36 528.53,348.46 535.04,342.54 539.05,336.62 543.06,330.69 545.06,328.23 548.07,320.82 551.07,313.42 551.57,306.51 551.57,306.51 Z M 1058.94,122.28 C 1057.69,133.95 1053.74,151.96 1050.46,162.75 1047.37,172.92 1039.58,191.78 1036.06,199.70 1032.54,207.62 1021.98,222.57 1021.98,222.57 1021.98,222.57 1024.62,233.13 1026.38,249.84 1028.14,266.56 1029.02,283.27 1027.26,294.71 1025.50,306.14 1023.74,328.14 1019.34,339.57 1014.95,351.01 1014.07,360.69 1007.03,373.00 999.99,385.32 989.43,400.27 983.27,406.43 977.11,412.59 971.03,419.12 963.92,423.15 957.75,426.64 948.49,430.74 943.68,431.94 936.64,433.70 930.48,434.82 930.48,434.82 930.48,434.82 942.80,440.74 952.48,451.30 962.16,461.86 971.83,473.29 975.35,482.97 978.87,492.65 984.15,509.36 984.15,516.40 984.15,523.44 984.15,541.91 983.27,548.07 982.39,554.23 975.35,589.42 970.08,602.61 964.80,615.81 958.64,632.52 950.72,644.84 942.80,657.15 933.12,668.59 924.33,678.27 915.53,687.95 900.57,702.90 882.09,713.46 863.62,724.01 847.78,730.17 833.71,731.93 819.63,733.69 801.15,732.81 787.96,729.29 774.76,725.77 754.52,714.34 744.85,705.54 735.17,696.74 712.29,678.27 707.89,672.99 703.49,667.71 682.38,649.24 676.22,643.96 670.06,638.68 637.51,607.01 637.51,607.01 637.51,607.01 619.03,590.30 619.03,590.30 619.03,590.30 612.87,638.68 612.00,643.96 611.12,649.24 609.38,663.32 608.07,671.08 606.78,678.67 604.55,684.27 598.80,686.83 595.85,688.14 591.02,688.34 589.96,688.37 589.96,688.37 589.96,688.37 589.96,688.37 589.96,688.37 589.92,688.37 589.86,688.37 589.79,688.37 589.75,688.37 589.75,688.37 589.75,688.37 589.75,688.37 589.75,688.37 588.72,688.34 584.13,688.13 581.19,686.83 575.43,684.27 573.20,678.67 571.91,671.08 570.60,663.32 568.86,649.24 567.98,643.96 567.10,638.68 560.94,590.30 560.94,590.30 560.94,590.30 542.44,607.01 542.44,607.01 542.44,607.01 509.85,638.68 503.69,643.96 497.52,649.24 476.38,667.71 471.98,672.99 467.58,678.27 444.68,696.74 434.99,705.54 425.30,714.34 405.04,725.77 391.83,729.29 378.62,732.81 360.12,733.69 346.03,731.93 331.94,730.17 316.09,724.01 297.59,713.46 279.09,702.90 264.12,687.95 255.31,678.27 246.51,668.59 236.82,657.15 228.89,644.84 220.96,632.52 214.80,615.81 209.51,602.61 204.23,589.42 197.18,554.23 196.30,548.07 195.42,541.91 195.42,523.44 195.42,516.40 195.42,509.36 200.71,492.65 204.23,482.97 207.75,473.29 217.44,461.86 227.13,451.30 236.82,440.74 249.15,434.82 249.15,434.82 249.15,434.82 242.98,433.70 235.94,431.94 231.13,430.74 221.85,426.64 215.68,423.15 208.56,419.12 202.47,412.59 196.30,406.43 190.14,400.27 179.57,385.32 172.52,373.00 165.48,360.69 164.60,351.01 160.19,339.57 155.79,328.14 154.03,306.14 152.27,294.71 150.50,283.27 151.39,266.56 153.15,249.84 154.91,233.13 157.55,222.57 157.55,222.57 157.55,222.57 146.98,207.62 143.46,199.70 139.94,191.78 132.14,172.92 129.04,162.75 125.76,151.96 121.81,133.95 120.56,122.28 119.03,108.05 116.35,91.32 118.80,73.90 121.03,57.98 128.49,47.51 134.65,41.35 140.82,35.19 153.15,32.55 163.72,32.55 174.28,32.55 198.22,36.63 212.16,41.91 228.57,48.12 306.27,92.25 320.34,100.94 340.35,113.31 560.05,263.92 560.05,263.92 560.05,263.92 474.62,75.66 474.62,75.66 474.62,75.66 565.34,259.52 565.34,259.52 565.34,259.52 560.94,238.41 562.70,226.09 565.24,210.38 590.00,212.01 590.00,212.01 590.00,212.01 614.73,210.38 617.27,226.09 619.03,238.41 614.63,259.52 614.63,259.52 614.63,259.52 705.25,75.66 705.25,75.66 705.25,75.66 619.91,263.92 619.91,263.92 619.91,263.92 839.38,113.31 859.37,100.94 873.43,92.25 951.04,48.12 967.44,41.91 981.36,36.63 1005.27,32.55 1015.83,32.55 1026.38,32.55 1038.70,35.19 1044.86,41.35 1051.02,47.51 1058.46,57.98 1060.69,73.90 1063.14,91.32 1060.46,108.05 1058.94,122.28 Z M 1009.40,127.72 C 1008.85,120.50 1007.18,103.29 1005.51,98.29 1003.85,93.29 997.74,82.74 991.63,81.08 985.51,79.41 978.29,76.63 971.63,77.74 964.96,78.85 942.74,82.74 935.52,85.52 928.30,88.29 906.18,94.06 894.41,99.40 876.05,107.75 859.97,116.62 850.53,122.17 841.09,127.73 816.64,143.83 809.98,148.27 803.31,152.71 763.87,179.92 763.87,179.92 763.87,179.92 680.55,238.23 680.55,238.23 680.55,238.23 633.57,272.94 632.45,273.80 630.23,275.50 622.35,281.64 616.66,283.77 612.28,284.71 608.76,283.01 606.66,280.43 604.44,276.55 604.44,274.33 604.44,268.22 604.44,262.11 604.15,254.92 603.40,249.53 602.67,244.31 601.21,240.42 597.78,238.79 595.08,237.50 590.00,237.67 590.00,237.67 590.00,237.67 584.92,237.50 582.21,238.79 578.78,240.42 577.32,244.31 576.59,249.53 575.84,254.92 575.54,262.11 575.54,268.22 575.54,274.33 575.54,276.55 573.32,280.43 571.22,283.01 567.69,284.71 563.31,283.77 557.62,281.64 549.73,275.50 547.51,273.80 546.38,272.94 499.36,238.23 499.36,238.23 499.36,238.23 415.94,179.92 415.94,179.92 415.94,179.92 376.46,152.71 369.79,148.27 363.11,143.83 338.64,127.73 329.19,122.17 319.74,116.62 303.64,107.75 285.26,99.40 273.48,94.06 251.34,88.29 244.11,85.52 236.88,82.74 214.63,78.85 207.96,77.74 201.29,76.63 194.06,79.41 187.94,81.08 181.82,82.74 175.71,93.29 174.04,98.29 172.37,103.29 170.70,120.50 170.15,127.72 169.59,134.94 171.26,151.05 174.04,167.70 176.82,184.36 180.71,194.92 182.38,200.47 184.05,206.02 191.83,223.24 195.17,228.23 198.51,233.23 206.85,246.00 206.85,246.00 206.85,246.00 205.18,253.22 203.51,260.44 201.84,267.66 202.40,274.88 201.29,280.43 200.18,285.99 200.18,303.76 200.18,309.31 200.18,314.86 202.40,332.08 203.51,337.63 204.62,343.18 211.85,364.84 212.41,367.62 212.97,370.39 226.31,396.49 232.43,403.71 238.55,410.93 249.09,419.25 256.87,423.14 264.66,427.02 274.69,429.81 274.69,429.81 274.69,429.81 284.15,432.03 284.15,432.03 284.15,432.03 277.25,434.25 272.47,436.48 264.11,440.38 256.94,445.95 251.34,452.58 245.22,459.81 237.43,470.89 234.10,479.22 230.32,488.69 227.66,495.84 226.87,506.42 226.16,515.87 227.41,526.41 229.08,535.29 230.75,544.18 236.87,564.78 240.77,577.01 243.92,586.90 251.33,599.20 256.34,609.19 261.34,619.19 270.80,631.95 275.25,637.50 279.70,643.05 293.60,658.60 301.94,665.82 310.28,673.04 320.85,680.28 332.53,686.38 344.21,692.49 355.33,696.94 364.80,698.60 372.15,699.88 385.91,700.81 398.70,699.70 411.49,698.59 426.32,691.56 435.96,686.37 443.18,682.48 460.43,666.93 465.99,661.38 471.55,655.83 499.36,629.73 503.80,625.84 508.25,621.95 558.30,572.53 561.64,568.64 564.98,564.75 565.53,564.75 568.87,565.31 572.20,565.87 574.10,567.15 575.54,579.19 577.20,593.09 579.43,605.29 579.99,617.51 580.55,629.73 582.21,655.24 584.44,662.47 585.73,666.69 589.12,666.93 589.85,666.94 589.85,666.94 589.85,666.93 589.85,666.93 589.85,666.93 589.88,666.93 589.93,666.93 589.97,666.93 590.00,666.93 590.00,666.93 590.00,666.93 590.00,666.94 590.00,666.94 590.75,666.93 594.26,666.70 595.56,662.47 597.78,655.24 599.44,629.73 600.00,617.51 600.55,605.29 602.79,593.09 604.44,579.19 605.88,567.15 607.78,565.87 611.11,565.31 614.44,564.75 615.00,564.75 618.33,568.64 621.66,572.53 671.66,621.95 676.10,625.84 680.55,629.73 708.32,655.83 713.88,661.38 719.43,666.93 736.67,682.48 743.87,686.37 753.50,691.56 768.31,698.59 781.09,699.70 793.87,700.81 807.62,699.88 814.96,698.60 824.41,696.94 835.53,692.49 847.19,686.38 858.86,680.28 869.42,673.04 877.75,665.82 886.08,658.60 899.97,643.05 904.41,637.50 908.86,631.95 918.31,619.19 923.30,609.19 928.30,599.20 935.71,586.90 938.86,577.01 942.75,564.78 948.87,544.18 950.53,535.29 952.20,526.41 953.45,515.87 952.74,506.42 951.95,495.84 949.30,488.69 945.52,479.22 942.19,470.89 934.41,459.81 928.30,452.58 922.70,445.95 915.54,440.38 907.19,436.48 902.41,434.25 895.52,432.03 895.52,432.03 895.52,432.03 904.97,429.81 904.97,429.81 904.97,429.81 914.99,427.02 922.77,423.14 930.54,419.25 941.07,410.93 947.19,403.71 953.30,396.49 966.63,370.39 967.18,367.62 967.74,364.84 974.96,343.18 976.07,337.63 977.18,332.08 979.40,314.86 979.40,309.31 979.40,303.76 979.40,285.99 978.29,280.43 977.18,274.88 977.74,267.66 976.07,260.44 974.40,253.22 972.74,246.00 972.74,246.00 972.74,246.00 981.07,233.23 984.40,228.23 987.74,223.24 995.51,206.02 997.18,200.47 998.85,194.92 1002.74,184.36 1005.51,167.70 1008.29,151.05 1009.96,134.94 1009.40,127.72 Z"/>
</svg>
