<svg xmlns="http://www.w3.org/2000/svg" width="747" height="656" viewBox="0 0 747 656">
  <path fill="#fff" stroke="#000" stroke-width="1px" fill-rule="evenodd" d="m 404.60969,20.515451 328.1105,567.060999 c 28.56328,45.64785 17.52343,72.51934 -44.3654,67.82228 L 51.153635,654.92678 C 6.782529,655.99457 -12.725281,631.62837 10.113145,595.23367 10.982015,593.81715 343.08069,20.505924 343.08069,20.505924 c 14.4151,-26.6946516 47.6478,-26.4181776 61.529,0.0095 z"/>
  <path fill="#cb0000" d="M 32.855836,640.84251 C 22.271545,639.60439 14.361858,623.76172 18.223636,610.77392 19.333908,607.03989 356.25097,28.54174 359.21984,24.082885 c 10.61417,-15.9410828 28.47076,-7.991941 33.136,0.800347 1.60773,3.02999 329.22615,575.853398 330.27274,577.733958 10.08831,18.12728 6.93109,38.07034 -11.17511,37.89638 -2.3936,-0.023 -676.947634,0.73264 -678.597634,0.32894 z M 374.64336,124.25701 c -0.57099,0.0109 -259.90674,450.11729 -259.87532,450.14871 0.0312,0.0312 519.924,1.51353 519.94248,1.48431 0.022,-0.0349 -259.54535,-451.64295 -260.06716,-451.63302 z"/>
  <path fill="#010101" d="m 228.55224,522.94252 c -0.4669,-1.04266 61.29292,-114.85091 62.05371,-115.34182 1.5877,-1.0245 36.78552,17.06655 40.30636,20.71675 l 25.13565,38.34879 3.48423,87.32703 c -13.02813,0 -17.76523,-5.33383 -22.77274,-13.14319 l -4.63746,-63.35681 c 0,0 -28.09223,-40.97267 -28.55032,-40.23899 -5.4744,8.76787 -55.28302,99.21259 -64.63093,113.59427 -0.29312,0.45096 -10.3885,-1.40053 -10.3885,-27.90603 z m 148.34557,23.46557 c 2.09357,-3.46441 39.97002,-48.44687 44.22449,-49.9334 11.50526,-4.02 19.75677,-15.64212 41.36647,-41.91558 12.09378,-14.70384 34.19341,-13.0782 40.94003,-5.32498 9.91433,11.39355 81.99152,104.52911 76.31337,104.53545 0,0 -194.99151,0.22369 -200.38246,0.22369 -5.46531,0 -4.91055,-3.53317 -2.4619,-7.58518 z m -1.54526,-98.65145 c -1.54019,-0.0122 -2.06295,9.01284 -6.83179,9.25028 -3.87181,0.19278 -11.37156,-9.22398 -12.85043,-12.73153 -0.7462,-1.76984 -1.87038,-6.72942 -0.90748,-12.05174 0.16703,-0.92324 -18.12327,-8.7033 -13.51123,-18.08075 4.48307,-9.11522 12.0418,-0.30306 14.44497,1.55229 2.16915,1.67468 0.74582,-35.23667 -0.71399,-33.67296 -0.24185,0.25907 -21.25752,38.97104 -21.71873,38.97104 -1.60463,0 -38.40775,-19.87243 -38.75996,-20.92906 -0.19503,-0.58509 33.84429,-65.43582 32.72026,-66.14737 -1.60161,-1.01388 -19.88485,-1.25441 -22.3863,-0.29451 -1.83776,0.70522 -14.52427,25.31715 -14.52427,28.17722 0,1.05736 13,12.70711 13,13.26289 0,1.33648 -3.89012,8.93083 -4.57472,8.93083 -0.29373,0 -14.6836,-12 -14.93656,-12 -0.25296,0 -6.86545,12 -7.29071,12 l -10.60651,-9.98343 0.14693,-17.51657 27.18412,-44.5 c 0,0 71.28766,0.0886 75.5766,2.1046 5.84011,2.74518 9.56919,7.1097 11.87654,13.90033 1.85029,5.44547 -4.07222,104.62232 -3.74668,105.47067 0.32554,0.84834 58.37099,50.24964 58.37099,50.93311 0,1.90014 -4.38579,5.59833 -6.56445,5.53527 -1.06455,-0.0308 -52.72845,-42.17533 -53.3966,-42.18061 z"/>
  <path fill="#000" stroke="#000" stroke-width="1.18783" fill-rule="evenodd" stroke-linecap="round" stroke-linejoin="round" d="m 422.95379,290.11796 c 5.5194,11.9728 0.31446,25.87451 -11.51397,31.25366 -11.82843,5.37913 -25.82329,0.20876 -31.23847,-11.541 -5.41506,-11.74977 -0.21012,-25.65149 11.61831,-31.03064 11.74934,-5.34315 25.63208,-0.29646 31.13413,11.31798 z"/>
</svg>
