<svg xmlns="http://www.w3.org/2000/svg" width="356px" height="300px" viewBox="2680 4442 2238 1886">
  <path fill="#000" d="M2720 6288l0 -200 2158 0 0 200 -2158 0zm853 -789l0 187 -853 0 0 -201 598 0c-109,-111 -163,-236 -163,-374 0,-172 64,-319 191,-443 127,-124 278,-186 454,-186 175,0 326,62 453,186 128,124 191,271 191,443 0,138 -54,263 -163,374l597 0 0 201 -853 0 0 -187c145,-94 218,-220 218,-378 0,-120 -44,-222 -131,-308 -88,-87 -192,-130 -312,-130 -122,0 -226,43 -313,130 -87,86 -131,188 -131,308 0,158 72,284 217,378z"/>
</svg>
