<svg xmlns="http://www.w3.org/2000/svg" width="206" height="211" viewBox="0 0 206 211">
  <path fill="#000" stroke="#000" stroke-width="1" d="M 60.00,147.00 C 60.00,147.00 58.91,129.00 58.91,129.00 58.91,129.00 58.91,83.00 58.91,83.00 58.91,83.00 58.91,75.00 58.91,75.00 58.91,75.00 58.91,65.00 58.91,65.00 58.91,65.00 58.91,50.00 58.91,50.00 59.00,47.12 58.79,43.65 60.17,41.04 63.25,35.25 76.80,31.92 83.00,29.98 83.00,29.98 159.00,8.13 159.00,8.13 159.00,8.13 192.00,0.61 192.00,0.61 195.36,0.02 201.50,-1.05 203.89,2.31 206.15,6.12 204.43,13.71 203.89,18.00 203.89,18.00 202.00,39.00 202.00,39.00 202.00,39.00 202.00,48.00 202.00,48.00 202.00,48.00 201.00,60.00 201.00,60.00 201.00,60.00 203.17,118.00 203.17,118.00 204.00,126.69 207.08,142.35 205.32,150.00 201.46,166.81 184.25,176.32 168.00,176.96 157.09,177.39 144.07,173.44 136.09,165.82 124.62,154.85 122.68,136.66 132.53,124.00 145.15,107.78 165.79,106.73 184.00,112.00 181.25,100.71 182.00,72.86 182.00,60.00 182.00,53.01 182.43,28.52 184.00,23.00 184.00,23.00 154.00,28.21 154.00,28.21 154.00,28.21 110.00,39.86 110.00,39.86 110.00,39.86 89.00,46.81 89.00,46.81 86.33,47.85 81.46,49.65 79.51,51.64 76.37,54.83 76.01,66.44 76.00,71.00 76.00,71.00 76.00,118.00 76.00,118.00 76.00,118.00 77.00,133.00 77.00,133.00 77.00,133.00 79.08,167.00 79.08,167.00 79.57,173.67 80.96,178.04 79.08,185.00 74.67,201.25 57.96,210.34 42.00,210.96 30.74,211.40 17.08,207.17 9.18,198.91 -5.96,183.06 -1.40,159.97 17.00,148.93 21.88,146.00 28.37,144.02 34.00,143.29 42.90,142.13 51.70,143.81 60.00,147.00 Z"/>
</svg>
