<svg xmlns="http://www.w3.org/2000/svg" width="89" height="185" viewBox="369 52 89 185">
  <path fill="#000" stroke="#000" stroke-width="1" d="M 435.00,170.00 C 435.00,170.00 434.00,153.00 434.00,153.00 434.00,153.00 434.00,111.00 434.00,111.00 434.00,111.00 434.00,71.00 434.00,71.00 434.13,61.65 437.80,59.89 446.00,56.71 448.39,55.92 452.99,54.09 454.78,56.71 456.68,58.77 455.23,63.59 454.78,66.00 452.62,73.23 451.09,81.50 451.00,89.00 451.00,89.00 451.00,138.00 451.00,138.00 451.00,138.00 452.00,153.00 452.00,153.00 452.00,153.00 454.08,190.00 454.08,190.00 454.57,196.67 455.96,201.04 454.08,208.00 449.67,224.25 432.96,233.34 417.00,233.96 406.09,234.39 393.07,230.44 385.09,222.82 373.62,211.85 371.68,193.66 381.53,181.00 390.56,169.40 406.72,164.43 421.00,166.29 426.05,166.95 430.22,168.41 435.00,170.00 Z"/>
</svg>
