<svg xmlns="http://www.w3.org/2000/svg" width="725" height="725" viewBox="0 0 725 725">
  <circle cx="362.5" cy="362.5" r="350" fill="#fff" stroke="#000" stroke-width="2.5px"/>
  <path d="m 690.64498,362.49999 c 0,181.22946 -146.9155,328.14495 -328.14495,328.14495 -181.22946,10e-6 -328.144966,-146.91549 -328.144966,-328.14495 0,-181.22946 146.915506,-328.144956 328.144966,-328.144956 181.22945,0 328.14495,146.915496 328.14495,328.144956 z" fill="#003399"/>
  <g transform="matrix(1.486189,0,0,1.486189,540.6877,-765.1232)" fill="#fff">
    <path d="m -162.2598,695.78989 h 10.45958 v 41.0912 c 0,4.06928 -10.08603,3.49728 -10.08603,0 z" fill="#fff"/>
    <path d="m -147.81755,695.78989 h 10.45958 v 50.05655 c 0,6.06117 -10.08603,5.86107 -10.08603,0 z" fill="#fff"/>
    <path d="m -185.87304,691.92858 c 2.98013,-14.39432 5.06167,-27.091 25.22578,-46.09318 v -28.79172 l -3.56595,-0.92451 c 0,0 0.0318,33.15501 0.0318,33.15501 -1.65453,1.66153 -3.21285,3.41928 -4.78639,5.16181 -3.37719,-1.67808 -3.72391,-6.92509 -5.41495,-11.63825 l -2.0649,-13.02075 1.93282,-10.8843 c 3.57932,-8.02055 5.81544,-16.38168 19.67875,-21.65983 l 8.32054,-0.13208 c 16.01878,2.7754 19.07775,14.16203 25.00879,25.38414 7.16359,13.55421 15.61344,25.60257 7.48096,30.3503 9.01208,5.86805 13.72951,16.03075 27.07479,17.5656 6.36954,0.65607 9.68572,-1.23231 14.52793,-1.84901 l 23.11262,27.99929 c 1.09794,7.18615 -1.55816,8.11558 -4.09423,9.24505 l -15.58451,-18.62217 5.41495,27.471 h -7.66018 l 4.88667,29.05587 c 0,2.78767 -9.37712,3.52302 -9.37712,0.52829 l -4.7546,-26.81064 -6.55554,-0.0735 -2.95365,30.71421 c 0,3.1559 -8.45262,2.58331 -8.45262,0 l 3.69802,-65.24363 -26.94271,-24.82956 c -3.10628,-5.49447 -0.84453,-7.19974 0,-9.90541 -3.78431,-11.31506 -10.20552,-21.31167 -15.32037,-31.96146 h -1.84901 l 0.13207,29.8483 c 21.61956,18.68778 22.37733,31.6547 25.22578,46.35732 z" fill="#fff"/>
    <path d="m -135.36376,575.69151 c 0.003,7.73868 -6.26969,14.01366 -14.00836,14.01366 -7.73868,0 -14.01129,-6.27498 -14.00837,-14.01366 -0.003,-7.73867 6.26969,-14.01366 14.00837,-14.01366 7.73867,0 14.01128,6.27499 14.00836,14.01366 z" fill="#fff"/>
    <path d="m -72.793169,650.58949 c 0.0026,6.91321 -5.600921,12.51887 -12.514131,12.51887 -6.913218,0 -12.516747,-5.60566 -12.514139,-12.51887 -0.0026,-6.91321 5.600921,-12.51886 12.514139,-12.51886 6.91321,0 12.516739,5.60565 12.514131,12.51886 z" fill="#fff"/>
  </g>
  <g transform="matrix(0.376839,0,0,0.376839,172.4891,407.3011)">
    <circle cx="215" cy="409" r="161" fill="none" stroke="#fff" stroke-width="40px"/>
    <circle cx="790" cy="406" r="161" fill="none" stroke="#fff" stroke-width="40px"/>
    <path d="M 429.48437,15.467118 C 296.9179,16.75919 319.39993,1.7711686 248.07762,230.98455 189.97511,414.12586 196.30387,394.15363 196,407 c -0.21296,9.98022 7.84333,17.89312 17.96694,18.57043 21.0536,-2.12877 12.19798,2.27698 85.19054,-224.38965 266.71215,281.35562 166.64844,235.73116 310.18316,241.44498 188.64235,-1.8089 203.97493,9.81974 206.21452,-17.83058 -0.25842,-9.38905 -4.65145,-14.98802 -134.11696,-303.11983 l 12.40388,-34.110675 42.63834,-0.775242 -1.55048,-35.661158 H 576.00521 c -14.0405,19.208788 5.68512,19.12265 76.74902,34.885915 l -12.40388,34.88591 -317.07421,0.77525 C 344.63838,47.079788 332.57905,51.731243 428.70913,51.903518 Z M 314.11415,159.91012 624.37752,159.36001 534.70921,400.30922 Z m 347.67101,14.30292 -88.01798,231.04719 192.53932,0.55011 z" fill="#fff" fill-rule="evenodd"/>
  </g>
  <path d="m 69.443918,373.94123 v 11.9692 H 654.5795 v -11.85628 z" fill="#fff"/>
</svg>
