<svg xmlns="http://www.w3.org/2000/svg" width="735" height="735" viewBox="0 0 735 735">
  <path d="M 391.91972,14.243162 722.65773,345.2093 c 15.15005,15.15006 9.69741,34.88788 -0.78328,45.95642 l -328.7798,329.79122 c -16.84198,16.84197 -40.52027,10.3968 -51.30871,-0.39164 L 14.964338,394.29884 C -0.7041983,378.6303 -1.0447956,357.69367 14.18105,342.46782 c 0,0 327.21325,-327.833017 327.21325,-327.833017 17.30914,-15.52546173 37.29919,-13.4160973 50.52542,-0.391641 z" fill="#fff" stroke="#000" stroke-width="2.03192" stroke-linecap="round" stroke-linejoin="round"/>
  <path d="M 387.72893,30.498744 705.6622,348.22179 c 14.25215,14.25215 11.45922,25.81051 1.59969,36.22306 L 386.28527,705.52327 c -15.8438,15.84379 -26.6484,10.84268 -36.79744,0.69364 L 31.203018,388.24192 c -14.739903,-14.73991 -16.122382,-26.15155 -1.798932,-40.475 0,0 320.989804,-320.510776 320.989804,-320.510776 16.28327,-14.605304 24.8927,-9.009932 37.33504,3.2426 z" fill="none" stroke="#000" stroke-width="12.1742" stroke-linecap="round" stroke-linejoin="round"/>
  <rect width="293.37677" height="293.37677" x="-146.68831" y="373.03519" transform="rotate(-45)" fill="#fc3" stroke="#000" stroke-width="5.3456" stroke-linecap="round"/>
</svg>
