<svg xmlns="http://www.w3.org/2000/svg" width="712" height="788" viewBox="51 27 712 788">
  <path fill="#000" stroke="#000" stroke-width="1" d="M 382.00,32.00 C 382.00,32.00 428.00,32.00 428.00,32.00 428.00,32.00 428.00,147.00 428.00,147.00 428.00,147.00 456.00,130.58 456.00,130.58 456.00,130.58 497.00,106.85 497.00,106.85 504.92,102.33 524.44,89.80 532.00,88.00 532.00,88.00 548.01,116.00 548.01,116.00 549.57,118.65 553.94,124.80 553.19,127.79 552.56,130.29 548.13,132.35 546.00,133.58 546.00,133.58 526.00,145.15 526.00,145.15 526.00,145.15 451.00,188.42 451.00,188.42 451.00,188.42 436.00,197.15 436.00,197.15 433.75,198.45 430.39,200.07 429.02,202.33 427.78,204.37 428.00,207.65 428.00,210.00 428.00,210.00 428.00,319.00 428.00,319.00 428.00,319.00 458.00,319.00 458.00,319.00 458.00,319.00 464.67,320.02 464.67,320.02 464.67,320.02 470.58,328.00 470.58,328.00 470.58,328.00 481.00,348.00 481.00,348.00 481.00,348.00 513.00,330.01 513.00,330.01 513.00,330.01 562.00,301.72 562.00,301.72 562.00,301.72 579.00,291.99 579.00,291.99 579.00,291.99 585.98,286.67 585.98,286.67 585.98,286.67 587.00,279.00 587.00,279.00 587.00,279.00 587.00,147.00 587.00,147.00 587.00,147.00 634.00,147.00 634.00,147.00 634.00,147.00 634.00,260.00 634.00,260.00 634.00,260.00 663.00,243.42 663.00,243.42 663.00,243.42 704.00,219.80 704.00,219.80 704.00,219.80 723.00,208.85 723.00,208.85 724.99,207.72 728.58,205.42 730.90,205.87 733.72,206.42 735.67,210.70 737.00,213.00 737.00,213.00 750.28,236.00 750.28,236.00 751.96,238.97 755.45,243.18 752.58,246.37 751.34,247.75 744.06,251.67 742.00,252.85 742.00,252.85 722.00,264.42 722.00,264.42 722.00,264.42 655.00,303.00 655.00,303.00 661.20,304.96 673.66,312.95 680.00,316.58 680.00,316.58 725.00,342.58 725.00,342.58 732.35,346.84 753.34,357.71 758.00,363.00 758.00,363.00 742.01,390.00 742.01,390.00 740.57,392.45 736.94,399.76 734.62,400.85 731.93,402.11 727.34,398.92 725.00,397.58 725.00,397.58 703.00,384.85 703.00,384.85 703.00,384.85 637.00,346.72 637.00,346.72 637.00,346.72 619.00,336.40 619.00,336.40 616.58,334.96 611.63,331.68 609.00,331.38 605.99,331.04 602.56,333.39 600.00,334.85 600.00,334.85 582.00,345.20 582.00,345.20 582.00,345.20 533.00,373.58 533.00,373.58 533.00,373.58 511.01,386.24 511.01,386.24 505.25,390.32 508.06,392.99 511.01,398.00 511.01,398.00 519.58,413.00 519.58,413.00 520.75,415.06 523.03,418.67 523.09,421.00 523.16,423.50 520.95,426.82 519.72,429.00 519.72,429.00 511.15,444.00 511.15,444.00 510.04,445.95 507.48,449.65 507.84,451.90 508.22,454.28 511.12,455.84 513.00,456.99 513.00,456.99 530.00,466.72 530.00,466.72 530.00,466.72 580.00,495.60 580.00,495.60 583.77,497.84 599.91,507.70 603.00,508.14 606.51,508.65 610.99,505.43 614.00,503.72 614.00,503.72 638.00,489.85 638.00,489.85 638.00,489.85 696.00,456.40 696.00,456.40 702.85,452.34 724.95,438.91 731.00,437.00 731.00,437.00 746.72,465.00 746.72,465.00 746.72,465.00 752.13,476.90 752.13,476.90 752.13,476.90 746.00,482.58 746.00,482.58 746.00,482.58 728.00,492.85 728.00,492.85 728.00,492.85 681.00,520.01 681.00,520.01 681.00,520.01 652.00,536.00 652.00,536.00 652.00,536.00 652.00,538.00 652.00,538.00 658.31,540.32 673.49,549.54 680.00,553.40 680.00,553.40 722.00,577.58 722.00,577.58 722.00,577.58 742.00,589.15 742.00,589.15 744.06,590.33 751.34,594.25 752.58,595.63 755.45,598.82 751.96,603.03 750.28,606.00 750.28,606.00 737.00,629.00 737.00,629.00 735.66,631.33 733.72,635.55 730.90,636.18 728.22,636.77 724.25,633.94 722.00,632.60 722.00,632.60 703.00,621.60 703.00,621.60 703.00,621.60 657.00,595.15 657.00,595.15 657.00,595.15 629.00,579.00 629.00,579.00 629.00,579.00 629.00,693.00 629.00,693.00 629.00,693.00 582.00,693.00 582.00,693.00 582.00,693.00 582.00,560.00 582.00,560.00 581.98,550.04 581.73,551.70 566.00,542.58 566.00,542.58 523.00,517.72 523.00,517.72 523.00,517.72 495.00,501.58 495.00,501.58 493.08,500.48 485.09,495.53 483.47,495.51 480.77,495.47 478.74,499.99 477.58,502.00 475.44,505.70 468.14,519.41 465.62,521.40 463.20,523.32 459.91,522.99 457.00,523.00 457.00,523.00 428.00,523.00 428.00,523.00 428.00,523.00 428.00,627.00 428.00,627.00 428.00,627.00 429.02,634.79 429.02,634.79 429.02,634.79 437.00,640.60 437.00,640.60 437.00,640.60 457.00,652.20 457.00,652.20 457.00,652.20 506.00,680.42 506.00,680.42 506.00,680.42 554.00,708.00 554.00,708.00 552.53,715.75 542.06,731.37 537.72,739.00 536.38,741.36 533.47,747.55 530.79,748.18 528.46,748.73 524.99,746.40 523.00,745.28 523.00,745.28 504.00,734.40 504.00,734.40 504.00,734.40 454.00,705.42 454.00,705.42 454.00,705.42 428.00,690.00 428.00,690.00 428.00,690.00 428.00,810.00 428.00,810.00 428.00,810.00 382.00,810.00 382.00,810.00 382.00,810.00 382.00,693.00 382.00,693.00 382.00,693.00 315.00,731.40 315.00,731.40 315.00,731.40 295.00,742.85 295.00,742.85 292.86,744.08 287.07,747.79 285.04,748.16 281.11,748.87 279.35,744.82 277.72,742.00 277.72,742.00 263.85,718.00 263.85,718.00 262.19,715.11 258.66,710.73 261.42,707.63 262.58,706.32 269.09,702.80 271.00,701.72 271.00,701.72 290.00,690.72 290.00,690.72 290.00,690.72 353.00,654.40 353.00,654.40 353.00,654.40 372.00,643.42 372.00,643.42 374.81,641.81 379.36,639.64 380.98,636.82 382.20,634.67 382.00,631.43 382.00,629.00 382.00,629.00 382.00,523.00 382.00,523.00 382.00,523.00 353.00,523.00 353.00,523.00 353.00,523.00 346.63,522.01 346.63,522.01 346.63,522.01 340.72,513.00 340.72,513.00 340.72,513.00 329.00,491.00 329.00,491.00 329.00,491.00 301.00,507.42 301.00,507.42 301.00,507.42 255.00,534.00 255.00,534.00 255.00,534.00 240.00,542.72 240.00,542.72 240.00,542.72 232.02,548.38 232.02,548.38 232.02,548.38 231.00,556.00 231.00,556.00 231.00,556.00 231.00,693.00 231.00,693.00 231.00,693.00 184.00,693.00 184.00,693.00 184.00,693.00 184.00,575.00 184.00,575.00 184.00,575.00 114.00,615.42 114.00,615.42 114.00,615.42 80.00,634.00 80.00,634.00 75.47,627.04 59.07,599.56 57.00,593.00 57.00,593.00 81.00,579.42 81.00,579.42 81.00,579.42 129.00,551.72 129.00,551.72 129.00,551.72 158.00,536.00 158.00,536.00 158.00,536.00 158.00,534.00 158.00,534.00 158.00,534.00 123.00,514.42 123.00,514.42 123.00,514.42 60.00,478.00 60.00,478.00 60.00,478.00 83.00,437.00 83.00,437.00 83.00,437.00 113.00,453.58 113.00,453.58 113.00,453.58 173.00,488.28 173.00,488.28 173.00,488.28 195.00,500.99 195.00,500.99 195.00,500.99 206.00,506.17 206.00,506.17 206.00,506.17 215.00,502.15 215.00,502.15 215.00,502.15 232.00,492.28 232.00,492.28 232.00,492.28 280.00,464.58 280.00,464.58 280.00,464.58 305.00,451.00 305.00,451.00 305.00,451.00 293.40,431.00 293.40,431.00 293.40,431.00 288.81,421.00 288.81,421.00 288.81,421.00 293.42,411.00 293.42,411.00 293.42,411.00 305.00,391.00 305.00,391.00 305.00,391.00 280.00,377.42 280.00,377.42 280.00,377.42 230.00,348.58 230.00,348.58 230.00,348.58 211.00,337.58 211.00,337.58 211.00,337.58 202.00,333.46 202.00,333.46 202.00,333.46 192.00,337.99 192.00,337.99 192.00,337.99 170.00,350.72 170.00,350.72 170.00,350.72 109.00,385.85 109.00,385.85 109.00,385.85 79.00,402.00 79.00,402.00 79.00,402.00 63.72,376.00 63.72,376.00 63.72,376.00 56.00,361.00 56.00,361.00 56.00,361.00 108.00,331.42 108.00,331.42 108.00,331.42 154.00,304.00 154.00,304.00 154.00,304.00 122.00,286.20 122.00,286.20 122.00,286.20 57.00,249.00 57.00,249.00 59.07,242.44 75.47,214.96 80.00,208.00 80.00,208.00 115.00,227.15 115.00,227.15 115.00,227.15 152.00,248.58 152.00,248.58 152.00,248.58 180.00,265.00 180.00,265.00 180.00,265.00 180.00,147.00 180.00,147.00 180.00,147.00 227.00,147.00 227.00,147.00 227.00,147.00 227.00,283.00 227.00,283.00 227.00,283.00 228.02,290.90 228.02,290.90 228.02,290.90 236.00,297.00 236.00,297.00 236.00,297.00 252.00,306.28 252.00,306.28 252.00,306.28 295.00,331.15 295.00,331.15 295.00,331.15 329.00,351.00 329.00,351.00 329.00,351.00 339.72,331.00 339.72,331.00 339.72,331.00 346.39,320.60 346.39,320.60 346.39,320.60 353.00,319.00 353.00,319.00 353.00,319.00 382.00,319.00 382.00,319.00 382.00,319.00 382.00,208.00 382.00,208.00 382.00,208.00 380.98,200.21 380.98,200.21 380.98,200.21 372.00,193.72 372.00,193.72 372.00,193.72 354.00,183.40 354.00,183.40 354.00,183.40 292.00,147.58 292.00,147.58 292.00,147.58 259.00,129.00 259.00,129.00 261.53,122.09 271.38,106.32 275.58,99.00 277.04,96.46 280.28,89.46 283.21,88.87 285.51,88.40 289.05,90.86 291.00,91.99 291.00,91.99 310.00,102.85 310.00,102.85 310.00,102.85 382.00,144.00 382.00,144.00 382.00,144.00 382.00,32.00 382.00,32.00 Z M 374.21,365.60 C 369.95,368.47 367.55,374.56 365.00,379.00 365.00,379.00 348.80,407.00 348.80,407.00 346.78,410.38 341.37,418.26 341.87,422.00 342.20,424.53 345.59,429.61 346.99,432.00 346.99,432.00 358.42,452.00 358.42,452.00 358.42,452.00 368.28,469.00 368.28,469.00 369.68,471.46 371.75,475.54 374.21,476.98 376.31,478.21 379.61,478.00 382.00,478.00 382.00,478.00 430.00,478.00 430.00,478.00 432.89,477.99 436.23,478.32 438.61,476.40 440.45,474.93 445.11,466.52 446.58,464.00 446.58,464.00 462.72,436.00 462.72,436.00 464.78,432.38 470.67,423.91 469.97,420.00 469.55,417.72 464.07,408.61 462.58,406.00 462.58,406.00 446.40,378.00 446.40,378.00 438.99,365.51 440.48,365.02 431.00,365.00 431.00,365.00 394.00,365.00 394.00,365.00 388.55,365.00 379.15,364.46 374.21,365.60 Z"/>
</svg>
