<svg xmlns="http://www.w3.org/2000/svg" width="249px" height="300px" viewBox="2680 4405 2204 2660">
  <path fill="#000" d="M3086 5231l0 1258 -201 0 0 -1457c0,-202 -55,-386 -165,-550l212 0c75,103 126,236 154,397 68,-167 147,-299 236,-397l197 -37c90,116 147,270 171,462 46,-145 128,-287 245,-425l194 -37c109,151 163,318 163,501l0 382c54,-153 112,-274 172,-360l166 -61c143,221 214,454 214,698 0,194 -43,375 -128,545 -85,170 -214,328 -384,475 16,118 85,251 207,400l-236 0c-57,-72 -108,-168 -152,-287 -125,71 -279,121 -461,150l0 -172c172,-35 312,-86 422,-151 -14,-87 -21,-174 -21,-262l0 -1220c0,-199 -28,-349 -86,-451 -142,153 -247,369 -315,646l0 1211 -202 0 0 -1338c0,-249 -30,-422 -88,-519 -139,162 -243,361 -314,599zm1206 1206c118,-120 205,-248 264,-385 58,-137 87,-283 87,-436 0,-161 -35,-317 -105,-468 -100,123 -181,287 -246,492l0 797z"/>
</svg>
