<svg xmlns="http://www.w3.org/2000/svg" width="753.12" height="671.52002" viewBox="0 0 753.12 671.52002">
  <g transform="matrix(1.118133,0,0,-1.118133,-44.48418,711.1844)">
    <path d="m 71.985614,631.52918 c -11.4325,0 -21.99656,-6.09918 -27.71282,-16 -5.71624,-9.90085 -5.71624,-22.09918 0,-32 L 348.84719,55.99085 c 5.71626,-9.90083 16.28032,-16.00001 27.71281,-16.00001 11.43251,0 21.99659,6.09918 27.71283,16.00001 l 304.5744,527.53833 c 5.71624,9.90082 5.71624,22.09915 0,32 -5.71626,9.90081 -16.28032,16 -27.71282,16 z" fill="#fff" fill-rule="evenodd" stroke="#000" stroke-width="2"/>
    <path d="m 71.985614,619.52918 c -7.14532,0 -13.74786,-3.81198 -17.32052,-10 -3.57264,-6.18804 -3.57264,-13.81198 0,-20 L 359.23951,61.99086 c 3.57264,-6.18804 10.1752,-10.00002 17.32049,-10.00002 7.14533,0 13.74787,3.81198 17.32053,10.00002 l 304.5744,527.53832 c 3.57264,6.18802 3.57264,13.81196 0,20 -3.57266,6.18802 -10.1752,10 -17.32052,10 z m 69.282086,-60 L 376.56,151.99085 611.85233,559.52918 Z" fill="#cc0000" fill-rule="evenodd"/>
  </g>
</svg>
